<svg xmlns="http://www.w3.org/2000/svg" viewBox="0 0 64 64">
  <defs>
    <linearGradient id="bgg" x1="0" y1="0" x2="1" y2="1">
      <stop offset="0" stop-color="#1b2140"/>
      <stop offset="0.5" stop-color="#0d1126"/>
      <stop offset="1" stop-color="#070a18"/>
    </linearGradient>
    <linearGradient id="eq" x1="0" y1="1" x2="0" y2="0">
      <stop offset="0" stop-color="#00e5ff"/>
      <stop offset="0.5" stop-color="#8b5cf6"/>
      <stop offset="1" stop-color="#ff3df0"/>
    </linearGradient>
    <filter id="glow" x="-60%" y="-60%" width="220%" height="220%">
      <feGaussianBlur stdDeviation="2.4"/>
    </filter>
    <clipPath id="round"><rect width="64" height="64" rx="14"/></clipPath>
  </defs>
  <g clip-path="url(#round)">
    <rect width="64" height="64" fill="url(#bgg)"/>
    <g filter="url(#glow)" opacity="0.9">
      <rect x="4.5"  y="30" width="9" height="26" rx="4.5" fill="url(#eq)"/>
      <rect x="16"   y="18" width="9" height="38" rx="4.5" fill="url(#eq)"/>
      <rect x="27.5" y="6"  width="9" height="50" rx="4.5" fill="url(#eq)"/>
      <rect x="39"   y="14" width="9" height="42" rx="4.5" fill="url(#eq)"/>
      <rect x="50.5" y="26" width="9" height="30" rx="4.5" fill="url(#eq)"/>
    </g>
    <rect x="4.5"  y="30" width="9" height="26" rx="4.5" fill="url(#eq)"/>
    <rect x="16"   y="18" width="9" height="38" rx="4.5" fill="url(#eq)"/>
    <rect x="27.5" y="6"  width="9" height="50" rx="4.5" fill="url(#eq)"/>
    <rect x="39"   y="14" width="9" height="42" rx="4.5" fill="url(#eq)"/>
    <rect x="50.5" y="26" width="9" height="30" rx="4.5" fill="url(#eq)"/>
    <g fill="#ffffff">
      <rect x="6.75"  y="32.5" width="4.5" height="7" rx="2.25" opacity="0.85"/>
      <rect x="18.25" y="20.5" width="4.5" height="7" rx="2.25" opacity="0.85"/>
      <rect x="29.75" y="8.5"  width="4.5" height="7" rx="2.25" opacity="0.85"/>
      <rect x="41.25" y="16.5" width="4.5" height="7" rx="2.25" opacity="0.85"/>
      <rect x="52.75" y="28.5" width="4.5" height="7" rx="2.25" opacity="0.85"/>
    </g>
  </g>
  <rect x="1" y="1" width="62" height="62" rx="13.5" fill="none" stroke="#8b5cf6" stroke-opacity="0.35" stroke-width="1.2"/>
</svg>
